<svg xmlns="http://www.w3.org/2000/svg" viewBox="0 0 360 504"><defs><style>.cls-1,.cls-9{fill:#e0c5ac;}.cls-10,.cls-13,.cls-2,.cls-3,.cls-6,.cls-7{fill:#804c3b;}.cls-2{opacity:0.3;}.cls-3{opacity:0.25;}.cls-11,.cls-12,.cls-4{fill:#f44c7f;}.cls-4{opacity:0.2;}.cls-5{fill:#f5acb8;}.cls-6{stroke:#804c3b;stroke-miterlimit:10;stroke-width:0.75px;}.cls-8{fill:none;}.cls-13,.cls-9{font-size:12px;}.cls-10,.cls-12,.cls-13,.cls-9{font-family:CenturyGothic-Bold, Century Gothic;font-weight:700;}.cls-10,.cls-12{font-size:11px;letter-spacing:0.02em;}</style></defs><title>img4</title><g id="background"><rect class="cls-1" x="-72" y="72" width="504" height="360" transform="translate(432 72) rotate(90)"/><circle class="cls-2" cx="93.06" cy="198.77" r="11.92"/><circle class="cls-3" cx="323.37" cy="390.19" r="19.84"/><circle class="cls-3" cx="29.18" cy="249.11" r="6.65"/><circle class="cls-4" cx="269.86" cy="34.69" r="15.35"/><circle class="cls-4" cx="172.44" cy="429.87" r="28.85"/><circle class="cls-4" cx="32.87" cy="32.87" r="10.34"/><circle class="cls-5" cx="315.73" cy="176.13" r="13.64"/><circle class="cls-5" cx="253.54" cy="283.09" r="13.82"/><circle class="cls-5" cx="43.21" cy="149.73" r="7.61"/><circle class="cls-5" cx="30.95" cy="450.15" r="8.42"/><path class="cls-6" d="M81.69,51c.27-1,.71-2.56,1.3-4.68s1.33-4.47,2.2-7.07,1.87-5.28,3-8a67.11,67.11,0,0,1,3.64-7.54,26.46,26.46,0,0,1,4.11-5.6,6.29,6.29,0,0,1,4.47-2.2,2.7,2.7,0,0,1,1.65.58,9.52,9.52,0,0,1,1.41,1.27,12.93,12.93,0,0,1,1.33,1.85l-.4-.12a3,3,0,0,0-.41-.11,1.82,1.82,0,0,0-.46-.06A8.69,8.69,0,0,0,98,21.4a25.16,25.16,0,0,0-4.86,5.28,46.65,46.65,0,0,0-4.07,7.11q-1.82,3.9-3.21,7.54c-.92,2.42-1.7,4.62-2.34,6.58s-1.08,3.4-1.35,4.28a1.92,1.92,0,0,0,.69.87,9.46,9.46,0,0,1-2.37,0,4.06,4.06,0,0,1-2-.81,4.61,4.61,0,0,1-1.39-1.91,8.9,8.9,0,0,1-.58-3.15c0-1.19-.07-2.7-.11-4.53l-.12-5.49c0-1.83-.07-3.47-.08-4.91s0-2.36,0-2.75v-.92c-.31.92-.83,2.41-1.56,4.45S73,37.4,71.93,39.94s-2.28,5.15-3.61,7.83a70.65,70.65,0,0,1-4.19,7.37,29.11,29.11,0,0,1-4.5,5.48,6.81,6.81,0,0,1-4.57,2.14,1.87,1.87,0,0,1-1.44-.63,5.13,5.13,0,0,1-.93-1.45A12.53,12.53,0,0,1,52,58.54a2.19,2.19,0,0,0,.46.18,3.79,3.79,0,0,0,.81.11,9.11,9.11,0,0,0,5.49-2,24.76,24.76,0,0,0,5-5.06A54.09,54.09,0,0,0,68.12,45c1.35-2.49,2.55-4.91,3.61-7.28s2-4.54,2.71-6.5,1.32-3.43,1.71-4.39a3.43,3.43,0,0,1-.23-1c.46,0,1,0,1.53,0a3.9,3.9,0,0,1,1.59.47,3.56,3.56,0,0,1,1.27,1.18,4.06,4.06,0,0,1,.52,2.23q0,.75.06,2.19c0,1,.06,2,.08,3.21s0,2.39.09,3.66.07,2.49.09,3.64,0,2.18,0,3.07,0,1.54,0,2A15.35,15.35,0,0,0,81.69,51Z"/><path class="cls-6" d="M110.93,40.06c-.78,1-1.77,2.14-3,3.52s-2.49,2.73-3.84,4a34.78,34.78,0,0,1-4,3.29,6.09,6.09,0,0,1-3.26,1.36,4.94,4.94,0,0,1-1.68-.32A5.41,5.41,0,0,1,93.62,51a5,5,0,0,1-1.18-1.48,4.08,4.08,0,0,1-.46-2,15.2,15.2,0,0,1,.63-4.25,17.79,17.79,0,0,1,1.73-4,13.58,13.58,0,0,1,2.55-3.15,7.79,7.79,0,0,1,3-1.76,9.8,9.8,0,0,1,5.08,0,4.74,4.74,0,0,1,1.91,1,2.11,2.11,0,0,1,.75,1.65,3.79,3.79,0,0,1-.78,2.31,7.54,7.54,0,0,1-2.08,1.85,17.84,17.84,0,0,1-3,1.47c-1.14.44-2.34.86-3.61,1.24.81-.19,1.66-.35,2.57-.49a15.85,15.85,0,0,1,2-.2c.7,0,1,.08,1,.23a1.42,1.42,0,0,1-.29.87,10.89,10.89,0,0,0-3.44-.06c-1.25.15-2.43.34-3.55.58a10.46,10.46,0,0,0-.37,1.87q-.09.9-.15,1.59a3.68,3.68,0,0,0,.38,2.17,1.38,1.38,0,0,0,1.18.6,5.41,5.41,0,0,0,2.83-1.32,38,38,0,0,0,3.76-3.24q2-1.9,3.81-4c1.23-1.36,2.23-2.53,3-3.49ZM96.77,43.87a9.39,9.39,0,0,0,1.68-.72A16.42,16.42,0,0,0,100.32,42a13.12,13.12,0,0,0,1.82-1.62,9.29,9.29,0,0,0,1.45-2,4.36,4.36,0,0,0,.66-2.39c0-.68-.47-1-1.24-.84a3.53,3.53,0,0,0-2,.95,9.75,9.75,0,0,0-1.71,2.08A20.63,20.63,0,0,0,97.9,40.9,30.74,30.74,0,0,0,96.77,43.87Z"/><path class="cls-6" d="M136.75,34.34a7.64,7.64,0,0,1-.7,2.69,32.61,32.61,0,0,1-1.81,3.69c-.76,1.33-1.6,2.68-2.55,4.05a37,37,0,0,1-2.88,3.69A21,21,0,0,1,126,51.15a4.12,4.12,0,0,1-2.34,1,3.13,3.13,0,0,1-1.27-.26,4.76,4.76,0,0,1-1-.61,3.41,3.41,0,0,1-.66-.66.93.93,0,0,1-.23-.49,8.77,8.77,0,0,1,.2-1.53c.13-.72.3-1.55.49-2.52s.41-2,.67-3.14.49-2.29.72-3.44c-.5,1.27-1.07,2.65-1.71,4.13a44.83,44.83,0,0,1-2,4.1,21.5,21.5,0,0,1-2.08,3.15,2.79,2.79,0,0,1-2,1.27,2.65,2.65,0,0,1-1.13-.25,4,4,0,0,1-1-.63,4.5,4.5,0,0,1-.72-.82,1.35,1.35,0,0,1-.29-.73,18,18,0,0,1,.46-3.15c.31-1.48.66-3.08,1-4.79s.74-3.39,1.07-5a20.84,20.84,0,0,0,.49-3.95c.19.07.5.22.92.43s.86.44,1.3.69.83.48,1.16.7.49.37.49.49a10.46,10.46,0,0,1-.23,1.64c-.15.79-.36,1.7-.61,2.72s-.51,2.11-.78,3.26S116.4,45,116.15,46s-.45,1.89-.6,2.66a9.31,9.31,0,0,0-.23,1.5c0,.54.17.81.52.81s.71-.39,1.21-1.16a28,28,0,0,0,1.67-3.06c.62-1.27,1.28-2.75,2-4.45L122.94,37c.16-.77.27-1.44.35-2s.15-1.12.23-1.7c.15.08.45.2.89.37l1.33.52c.45.18.84.35,1.19.52s.52.32.52.44a11.35,11.35,0,0,1-.23,1.44c-.16.77-.36,1.7-.61,2.78s-.51,2.21-.78,3.4-.53,2.32-.78,3.38-.45,2-.61,2.69a10.72,10.72,0,0,0-.23,1.33c0,.54.19.81.58.81s1.15-.56,2-1.68a24.24,24.24,0,0,0,2.72-4.41A39.14,39.14,0,0,0,132,38.72a26.88,26.88,0,0,0,1.16-6.92l.84.43c.4.21.81.44,1.21.69a10.67,10.67,0,0,1,1.1.78C136.58,34,136.75,34.18,136.75,34.34Z"/><path class="cls-6" d="M108,77.18a9.13,9.13,0,0,1-1.65,5.17,15.93,15.93,0,0,1-4.19,4.24,8.67,8.67,0,0,1,4.16,1.28,7.94,7.94,0,0,1,3.24,3.81,39.28,39.28,0,0,1,4.27-1.1,16.54,16.54,0,0,1,2.72-.34c.38,0,.58.3.58.92a16.88,16.88,0,0,0-3,.35,41,41,0,0,0-4.24,1c.11.42.21.88.29,1.38a11.68,11.68,0,0,1,.11,1.62,13.17,13.17,0,0,1-.86,4.8,15,15,0,0,1-2.29,4,15.51,15.51,0,0,1-3.26,3.06,22,22,0,0,1-3.81,2.17,21,21,0,0,1-3.9,1.3,16.31,16.31,0,0,1-3.55.43,10,10,0,0,1-1.59-.14,4.72,4.72,0,0,1-1.54-.55,3.67,3.67,0,0,1-1.15-1.07,2.89,2.89,0,0,1-.46-1.7,9,9,0,0,1,1.53-5.09,17.74,17.74,0,0,1,4-4.21A28.61,28.61,0,0,1,99,95.12a53.81,53.81,0,0,1,6.38-2.52c-.15-.61-.33-1.22-.52-1.82a7.42,7.42,0,0,0-.75-1.64,3.87,3.87,0,0,0-1.21-1.24,3.67,3.67,0,0,0-1.85-.55,16.28,16.28,0,0,1-3.76,1.7,13,13,0,0,1-3.81.61q-.47,0-.78,0a2.07,2.07,0,0,1-.61,0c-.38,1.23-.76,2.47-1.12,3.72s-.69,2.44-1,3.56-.52,2.13-.7,3a17.78,17.78,0,0,0-.31,2.22,3.93,3.93,0,0,1-.87-.4,10.4,10.4,0,0,1-1.27-.81c-.43-.31-.81-.61-1.16-.89s-.52-.53-.52-.73a13,13,0,0,1,.47-2.48c.3-1.23.69-2.65,1.15-4.25s1-3.29,1.5-5.08,1-3.5,1.51-5.11.84-3,1.15-4.25a12.13,12.13,0,0,0,.46-2.51v-.93a4.34,4.34,0,0,1,1.07.55c.44.29.88.61,1.3,1a8.89,8.89,0,0,1,1.07,1,1.63,1.63,0,0,1,.43.7A7,7,0,0,1,95,79.52c-.17.71-.39,1.57-.66,2.57s-.59,2.1-1,3.29-.75,2.43-1.13,3.7a10.26,10.26,0,0,0,4.5-1.39,12.24,12.24,0,0,0,3.56-3.12,15.29,15.29,0,0,0,2.31-4.27,14.28,14.28,0,0,0,.84-4.8,8.07,8.07,0,0,0-1.22-4.79Q101,69,97.88,69A10.38,10.38,0,0,0,92,70.71a15.61,15.61,0,0,0-4.21,4,19.14,19.14,0,0,0-2.54,4.88,13.4,13.4,0,0,0-.87,4.19,9.17,9.17,0,0,0,.29,2.6c.19.62.33,1,.4,1.27a7.19,7.19,0,0,1-2.13-1,6,6,0,0,1-1.48-1.53,4.31,4.31,0,0,1-.66-2.51,10.19,10.19,0,0,1,1.41-5A17.8,17.8,0,0,1,86,73.08a21.73,21.73,0,0,1,5.34-3.47,17,17,0,0,1,6.18-1.56,15.49,15.49,0,0,1,4,.38A8.65,8.65,0,0,1,104.81,70a7.79,7.79,0,0,1,2.31,2.86A9.79,9.79,0,0,1,108,77.18ZM92.33,110.34a11.12,11.12,0,0,0,5.81-1.5,13.43,13.43,0,0,0,4.19-3.93,17.46,17.46,0,0,0,2.48-5.43,19,19,0,0,0,.64-6,46.88,46.88,0,0,0-6.27,2.4,31,31,0,0,0-5.43,3.2A16.55,16.55,0,0,0,89.91,103a8,8,0,0,0-1.45,4.57,2.21,2.21,0,0,0,1.22,2.13A5.55,5.55,0,0,0,92.33,110.34Z"/><path class="cls-6" d="M125.55,83.65a7.4,7.4,0,0,1,1.27.14c.5.1,1,.22,1.5.35a13.65,13.65,0,0,1,1.36.44,3.67,3.67,0,0,1,.84.4l.46-1c.19.07.5.17.93.29s.84.25,1.27.4.79.3,1.1.44.46.24.46.32a11.67,11.67,0,0,1-.41,1.27c-.27.77-.59,1.71-1,2.81s-.79,2.29-1.21,3.57-.81,2.45-1.16,3.53-.61,2-.81,2.7-.23,1.07-.11,1.07.53-.3,1.12-.89,1.31-1.41,2.14-2.43,1.73-2.21,2.69-3.58,1.88-2.84,2.77-4.42v1L138,91.45q-.63,1-1.56,2.37c-.61.88-1.29,1.83-2,2.83s-1.45,1.92-2.17,2.77a18.43,18.43,0,0,1-2,2.08,2.62,2.62,0,0,1-1.56.81,5.81,5.81,0,0,1-.63-.06,4.45,4.45,0,0,1-1-.23,2.61,2.61,0,0,1-.86-.52,1.2,1.2,0,0,1-.38-.92,8.83,8.83,0,0,1,.38-2.23c.25-.9.56-1.89,1-3s.79-2.21,1.21-3.38.81-2.32,1.16-3.44h-.12c-.42.89-1,2.09-1.76,3.61s-1.56,3-2.43,4.48a32.09,32.09,0,0,1-2.57,3.78c-.84,1.06-1.56,1.59-2.13,1.59a3.76,3.76,0,0,1-2.84-1.16,4.52,4.52,0,0,1-1.09-3.24,13.86,13.86,0,0,1,.75-4.06,24.05,24.05,0,0,1,2-4.58,16.55,16.55,0,0,1,2.86-3.77A4.84,4.84,0,0,1,125.55,83.65Zm3.58,1.5a4.09,4.09,0,0,0-2.74,1.16,13.4,13.4,0,0,0-2.4,2.88,22,22,0,0,0-1.9,3.79,31.34,31.34,0,0,0-1.25,3.78,11.1,11.1,0,0,0-.4,2.89c0,.77.22,1.16.61,1.16s.71-.38,1.32-1.13a32.77,32.77,0,0,0,2.2-3.12q1.28-2,2.74-4.79t3-6.1A1.38,1.38,0,0,0,129.13,85.15Z"/><path class="cls-6" d="M138.84,99.48a13.39,13.39,0,0,1,.55-2.83c.36-1.39.83-3,1.38-4.83s1.16-3.76,1.79-5.8,1.24-4,1.8-5.81,1-3.43,1.38-4.82a13.4,13.4,0,0,0,.55-2.89v-1a4.47,4.47,0,0,1,1.13.52,11.14,11.14,0,0,1,1.24.89,8.27,8.27,0,0,1,1,1,1.56,1.56,0,0,1,.41.66,14,14,0,0,1-.58,2.8q-.58,2.12-1.45,4.89c-.57,1.84-1.2,3.83-1.87,6s-1.3,4.12-1.88,6a38.47,38.47,0,0,1,2.66-4.07,31.55,31.55,0,0,1,2.83-3.35,17,17,0,0,1,2.57-2.22,3.78,3.78,0,0,1,2-.81,1.08,1.08,0,0,1,.84.34,3,3,0,0,1,.52.81,4.62,4.62,0,0,1,.29,1c.05.32.1.62.14.89a14.77,14.77,0,0,0-1.7.12,10.07,10.07,0,0,0-2.2.52,11.33,11.33,0,0,0-2.45,1.21,10.66,10.66,0,0,0-2.43,2.19,18.7,18.7,0,0,0,.9,2.26c.4.88.82,1.73,1.27,2.54a18.19,18.19,0,0,0,1.27,2c.4.56.72.84.95.84.65,0,1.58-.84,2.77-2.51a39,39,0,0,0,3.7-6.85v1q-.47,1.09-1.5,3.09t-2.28,4a26.52,26.52,0,0,1-2.54,3.41,3.51,3.51,0,0,1-2.34,1.44,2,2,0,0,1-1.59-.75,8.25,8.25,0,0,1-1.22-1.88,19.72,19.72,0,0,1-1-2.48l-.84-2.63c-.31.5-.54.9-.69,1.21l-.64,1.27c-.3,1.12-.55,2.13-.75,3a15.15,15.15,0,0,0-.34,2.22,3.64,3.64,0,0,1-.9-.38c-.4-.21-.81-.44-1.21-.69a7.79,7.79,0,0,1-1.07-.78C139,99.9,138.84,99.67,138.84,99.48Z"/><path class="cls-6" d="M179,86.88a25.07,25.07,0,0,1-3.06,5.2,45.71,45.71,0,0,1-4.31,5,30.08,30.08,0,0,1-4.5,3.76,7.29,7.29,0,0,1-3.73,1.47,4.94,4.94,0,0,1-1.68-.32,5.36,5.36,0,0,1-1.58-.92,5.07,5.07,0,0,1-1.19-1.48,4.05,4.05,0,0,1-.46-2,15.2,15.2,0,0,1,.63-4.25,17.82,17.82,0,0,1,1.74-4,13.54,13.54,0,0,1,2.54-3.15,7.79,7.79,0,0,1,3-1.76,9.38,9.38,0,0,1,2.57-.35,9.55,9.55,0,0,1,2.52.32,4.69,4.69,0,0,1,1.9,1,2.12,2.12,0,0,1,.76,1.65,3.79,3.79,0,0,1-.78,2.31,7.69,7.69,0,0,1-2.08,1.85,18,18,0,0,1-3,1.47c-1.13.44-2.34.86-3.61,1.24.81-.19,1.67-.35,2.57-.49a16,16,0,0,1,2-.2c.7,0,1.05.08,1.05.23a1.49,1.49,0,0,1-.29.87,11.53,11.53,0,0,0-3.44-.06c-1.25.15-2.44.35-3.55.58a9.7,9.7,0,0,0-.38,1.87c-.06.6-.11,1.13-.14,1.59a3.68,3.68,0,0,0,.37,2.17,1.4,1.4,0,0,0,1.19.61,4.74,4.74,0,0,0,2.28-.75,19.2,19.2,0,0,0,2.74-2,39.6,39.6,0,0,0,2.92-2.8c1-1,1.91-2.09,2.77-3.15A34.75,34.75,0,0,0,177,89.31a16.82,16.82,0,0,0,1.45-2.6,10.83,10.83,0,0,1-1.27-.55,6.63,6.63,0,0,1-1.22-.78,3.61,3.61,0,0,1-.92-1.1,3,3,0,0,1-.35-1.44,8.86,8.86,0,0,1,.26-2,6.85,6.85,0,0,1,.81-1.94,5,5,0,0,1,1.36-1.41,3.37,3.37,0,0,1,2-.55,2.81,2.81,0,0,1,1.74.66,1.93,1.93,0,0,1,.52,1.82,23.22,23.22,0,0,1-.78,3.24c-.37,1.15-.76,2.31-1.19,3.47a8.57,8.57,0,0,0,1.79.14,8.45,8.45,0,0,0,1.16-.09,1.2,1.2,0,0,1,.89.35,7.88,7.88,0,0,1,.93.9,7.3,7.3,0,0,1,.75,1,2.14,2.14,0,0,1,.32.6,5.43,5.43,0,0,1-.38,1.22L184,92.49l-1.1,2.77c-.39,1-.73,1.85-1,2.66s-.54,1.48-.69,2-.16.81,0,.81.83-.44,1.7-1.33a41.5,41.5,0,0,0,2.8-3.21c1-1.25,2-2.53,2.89-3.84a23.77,23.77,0,0,0,2-3.29v1l-1.15,1.79c-.5.77-1.08,1.62-1.74,2.54s-1.35,1.86-2.1,2.8-1.49,1.8-2.2,2.57a21.27,21.27,0,0,1-2,1.91,2.59,2.59,0,0,1-1.48.75,4.56,4.56,0,0,1-.81-.11A5.43,5.43,0,0,1,178,102a3.63,3.63,0,0,1-1-.63,1.18,1.18,0,0,1-.4-.9,7.46,7.46,0,0,1,.63-2.48c.43-1.08.94-2.26,1.53-3.53s1.21-2.54,1.82-3.81,1.14-2.41,1.56-3.41a3.31,3.31,0,0,0-1.3-.2C180.25,87,179.6,87,179,86.88Zm-15.72,7.05a9.1,9.1,0,0,0,1.68-.72A16.51,16.51,0,0,0,166.83,92a14.38,14.38,0,0,0,1.82-1.62,9.43,9.43,0,0,0,1.44-2,4.52,4.52,0,0,0,.67-2.4c-.06-.67-.48-.95-1.25-.84a3.53,3.53,0,0,0-2,.95,10,10,0,0,0-1.7,2.08A20.65,20.65,0,0,0,164.4,91C164,92,163.58,93,163.27,93.93Zm17.34-13.86a2.56,2.56,0,0,0,0-1.56c-.16-.23-.38-.24-.67,0a3.78,3.78,0,0,0-.92,1.15,7.43,7.43,0,0,0-.78,2.05A9.65,9.65,0,0,0,178,83a5.3,5.3,0,0,0,0,1.25,3.66,3.66,0,0,0,.23,1,1,1,0,0,0,.58.6c.38-1.15.74-2.15,1.07-3A17.69,17.69,0,0,0,180.61,80.07Z"/><path class="cls-6" d="M208.16,85.21a9.17,9.17,0,0,1-.17,1c-.12.56-.29,1.28-.52,2.17s-.52,1.92-.87,3.12-.75,2.46-1.21,3.81q2-1.44,3.81-2.6c1.23-.77,2.41-1.46,3.53-2.08l-.18.81q-2,1.15-3.81,2.37c-1.23.81-2.45,1.63-3.64,2.48A108.5,108.5,0,0,1,201,106.93a38.51,38.51,0,0,1-4.22,7.28,15.25,15.25,0,0,1-4.53,4.16,10.21,10.21,0,0,1-5.09,1.33,4,4,0,0,1-.95-.12,2.61,2.61,0,0,1-.9-.4,2.16,2.16,0,0,1-.66-.87,3.19,3.19,0,0,1-.2-1.5,7.93,7.93,0,0,1,1.47-3.7,40.58,40.58,0,0,1,3.67-4.73c1.5-1.7,3.21-3.44,5.11-5.23s3.86-3.52,5.87-5.17q.79-2.31,1.53-4.6c.48-1.52.89-3,1.24-4.36-.66,1.35-1.41,2.77-2.25,4.28s-1.7,2.91-2.55,4.21a24.77,24.77,0,0,1-2.42,3.24,3.1,3.1,0,0,1-2,1.27,2.07,2.07,0,0,1-1-.35,6,6,0,0,1-1.07-.81,4.75,4.75,0,0,1-.84-1,1.82,1.82,0,0,1-.35-.89,9.24,9.24,0,0,1,.29-1.82c.19-.83.44-1.76.75-2.8s.64-2.14,1-3.3.68-2.27,1-3.35.57-2.07.78-3a15.48,15.48,0,0,0,.37-2.11,9.15,9.15,0,0,1,.93.49,13.53,13.53,0,0,1,1.24.84c.4.31.76.6,1.07.87s.46.46.46.57a6.92,6.92,0,0,1-.29,1.53c-.19.72-.44,1.54-.75,2.49s-.63,1.94-1,3l-1,3.06c-.31,1-.56,1.87-.75,2.66a8.55,8.55,0,0,0-.29,1.82c0,.58.18.87.52.87s.66-.41,1.27-1.22,1.33-1.85,2.14-3.15,1.67-2.76,2.57-4.41,1.8-3.33,2.69-5c.19-.69.35-1.35.46-2s.23-1.2.35-1.74a7.91,7.91,0,0,0,.83.35,12.6,12.6,0,0,1,1.19.52,11,11,0,0,1,1,.58C208,84.94,208.16,85.09,208.16,85.21ZM200.25,99a70.54,70.54,0,0,0-6,5.28q-2.72,2.69-4.71,5.06a31.74,31.74,0,0,0-3.15,4.33,7.56,7.56,0,0,0-1.21,3.12,1.75,1.75,0,0,0,1.67,2.25,5.15,5.15,0,0,0,3.53-1.73,23.22,23.22,0,0,0,3.52-4.57,55.61,55.61,0,0,0,3.35-6.44C198.32,103.92,199.32,101.48,200.25,99Z"/><path class="cls-6" d="M173.63,121.46a2.41,2.41,0,0,0-.64-1.79,3,3,0,0,0-2.13-.63,9.17,9.17,0,0,0-5.55,1.67,14.28,14.28,0,0,0-3.78,4.05,19,19,0,0,0-2.2,4.88,15.74,15.74,0,0,0-.72,4.19,8.31,8.31,0,0,0,.32,2.62c.21.64.35,1.05.43,1.25v.05a7.78,7.78,0,0,1-2.19-1,5.85,5.85,0,0,1-1.48-1.56,4.46,4.46,0,0,1-.66-2.54,11.23,11.23,0,0,1,1.27-5,18,18,0,0,1,8.38-8.2,13.64,13.64,0,0,1,5.95-1.36,12,12,0,0,1,2.36.26,7.64,7.64,0,0,1,2.34.87,5.18,5.18,0,0,1,1.77,1.62,4.23,4.23,0,0,1,.69,2.45,12.09,12.09,0,0,1-.35,2.66c-.23,1-.52,2.06-.86,3.18s-.73,2.25-1.13,3.4-.78,2.28-1.13,3.36q-.81,2.59-1.56,5.19T171.41,146c-.41,1.52-.75,2.89-1,4.13a19.57,19.57,0,0,0-.46,2.88l-1-.2c-.48-.09-1-.2-1.47-.32a12,12,0,0,1-1.36-.37c-.4-.14-.61-.3-.61-.49a13.14,13.14,0,0,1,.35-2.2c.23-1.08.55-2.36.95-3.84s.86-3.1,1.36-4.85,1-3.51,1.56-5.29c.35-1,.74-2.09,1.19-3.38s.86-2.58,1.27-3.87.75-2.53,1-3.72A13.18,13.18,0,0,0,173.63,121.46Z"/><path class="cls-6" d="M182.76,147c.27-.58.64-1.29,1.12-2.14s1-1.73,1.62-2.66,1.22-1.84,1.88-2.74a29.39,29.39,0,0,1,2-2.46,14.53,14.53,0,0,1,1.88-1.79,2.8,2.8,0,0,1,1.65-.69,1.94,1.94,0,0,1,1,.32,4.64,4.64,0,0,1,1,.78,4,4,0,0,1,.69,1,2,2,0,0,1,.26.92,7.44,7.44,0,0,1-.31,1.76c-.22.79-.49,1.66-.81,2.6s-.68,1.91-1,2.89-.69,1.88-1,2.69-.47,1.47-.6,2-.13.78,0,.78.47-.31.95-.92,1.06-1.44,1.73-2.46,1.42-2.19,2.23-3.52,1.63-2.73,2.48-4.19v1q-3.58,6.36-5.57,9.21t-3.21,3a2,2,0,0,1-1.82-.78,3.83,3.83,0,0,1-.95-1.82,5.61,5.61,0,0,1,.23-2.11,26.53,26.53,0,0,1,.95-2.92c.4-1,.83-2.1,1.27-3.2s.84-2.09,1.19-3a19.25,19.25,0,0,0,.72-2.16q.19-.84-.09-.84c-.31,0-.89.44-1.73,1.33a34.18,34.18,0,0,0-2.92,3.61,54.51,54.51,0,0,0-3.35,5.34,49.48,49.48,0,0,0-3,6.53,5,5,0,0,1-.81-.46,10.44,10.44,0,0,1-1-.78,9.89,9.89,0,0,1-.93-.87,1.25,1.25,0,0,1-.4-.72,7.8,7.8,0,0,1,.29-1.16c.19-.65.44-1.45.75-2.39s.63-2,1-3.12.68-2.24,1-3.3.56-2,.75-2.91a9.87,9.87,0,0,0,.29-2v-.49c0-.13,0-.33-.05-.6a6,6,0,0,1,1.21.43,11.38,11.38,0,0,1,1.33.72,9.64,9.64,0,0,1,1.07.78c.29.25.43.46.43.61a6,6,0,0,1-.23,1.62c-.16.53-.37,1.21-.64,2s-.61,1.79-1,2.94S183.26,145.26,182.76,147Z"/><path class="cls-6" d="M246.82,121.23a11.82,11.82,0,0,0,4.39-.63,14.19,14.19,0,0,0,2-1,5.41,5.41,0,0,1-.32,1.65,6.29,6.29,0,0,1-1,1.88,5.93,5.93,0,0,1-2,1.56,6.74,6.74,0,0,1-3.09.63,12.43,12.43,0,0,1-4.56-.86q-2.2-.87-4.3-1.94c-1.41-.71-2.82-1.36-4.22-1.93a11.2,11.2,0,0,0-4.3-.87,9.91,9.91,0,0,0-5.87,1.62,12.39,12.39,0,0,0-3.61,3.93,16.1,16.1,0,0,0-1.85,4.85,22.1,22.1,0,0,0-.52,4.39,8.69,8.69,0,0,0,.32,2.63c.21.63.36,1,.43,1.24v.06a7.8,7.8,0,0,1-2.19-1,6.35,6.35,0,0,1-1.5-1.55,4.29,4.29,0,0,1-.7-2.55,12.62,12.62,0,0,1,1.13-5,16.69,16.69,0,0,1,8-8.32,13.49,13.49,0,0,1,6.1-1.39,24.57,24.57,0,0,1,4.21.41c1.54.27,3.1.56,4.68.89s3.13.63,4.65.9A23.8,23.8,0,0,0,246.82,121.23Zm-21.66,29.58a14.71,14.71,0,0,1,.55-2.92c.36-1.44.82-3.13,1.36-5s1.12-4,1.76-6.1,1.22-4.16,1.76-6.06,1-3.58,1.36-5a15.38,15.38,0,0,0,.55-2.92v-.92c.26.08.64.21,1.12.4a15.3,15.3,0,0,1,1.42.67,8.66,8.66,0,0,1,1.18.75c.33.25.49.43.49.55a13.37,13.37,0,0,1-.52,2.77c-.34,1.35-.78,2.93-1.3,4.74s-1.09,3.76-1.73,5.86-1.22,4.12-1.76,6.07-1,3.72-1.42,5.34a27,27,0,0,0-.72,3.76l-.89-.29-1.39-.49a8.42,8.42,0,0,1-1.27-.58C225.34,151.15,225.16,151,225.16,150.81Z"/><path class="cls-6" d="M246.47,135.21a1.64,1.64,0,0,1,.79.32,6,6,0,0,1,1,.78,6,6,0,0,1,1.76-2.05,4.22,4.22,0,0,1,2.34-.9A3.75,3.75,0,0,1,255,134a3.2,3.2,0,0,1,.92,2.6,14.23,14.23,0,0,1-.69,4.39,13.37,13.37,0,0,0,1.79-.64,17.42,17.42,0,0,0,1.73-.86,11,11,0,0,0,1.42-1,6.28,6.28,0,0,0,.89-.83v1a11.09,11.09,0,0,1-2.68,1.73,19.72,19.72,0,0,1-3.44,1.33,19.53,19.53,0,0,1-1.68,3.87A21.09,21.09,0,0,1,251,148.9a11.28,11.28,0,0,1-2.54,2.31,4.75,4.75,0,0,1-2.6.87,3.45,3.45,0,0,1-1.44-.37,6,6,0,0,1-1.56-1.1,6.35,6.35,0,0,1-1.28-1.79,5.67,5.67,0,0,1-.52-2.46,12.4,12.4,0,0,1,.67-3.9,19.57,19.57,0,0,1,1.59-3.61,15.49,15.49,0,0,1,1.82-2.63C245.72,135.55,246.17,135.21,246.47,135.21Zm7.69,6.7a6.9,6.9,0,0,1-1.85.23,6.82,6.82,0,0,1-1.91-.26,4.91,4.91,0,0,1-1.64-.8,2.59,2.59,0,0,1-1-1.48,14.43,14.43,0,0,0-1.58,2.54,15.94,15.94,0,0,0-1,2.46,13.84,13.84,0,0,0-.46,2.14,12.36,12.36,0,0,0-.11,1.53,5,5,0,0,0,.37,2.08,1.36,1.36,0,0,0,1.36.81,3.54,3.54,0,0,0,2-.75,10.41,10.41,0,0,0,2.11-2.06,22.81,22.81,0,0,0,2-2.94A22.47,22.47,0,0,0,254.16,141.91Zm.17-.69a19.81,19.81,0,0,0,.64-2.43,12.85,12.85,0,0,0,.23-2.37,2.79,2.79,0,0,0-.46-1.55,1.55,1.55,0,0,0-1.39-.7,2,2,0,0,0-1.44.58,3.36,3.36,0,0,0-.84,1.41,4.85,4.85,0,0,0-.2,1.8,4.46,4.46,0,0,0,.43,1.73,2.87,2.87,0,0,0,1.13,1.24A2.72,2.72,0,0,0,254.33,141.22Z"/><path class="cls-6" d="M286.22,134.46a7.75,7.75,0,0,1-.69,2.69,32,32,0,0,1-1.82,3.69q-1.12,2-2.54,4a38.7,38.7,0,0,1-2.89,3.7,21.47,21.47,0,0,1-2.83,2.68,4.17,4.17,0,0,1-2.34,1,3.1,3.1,0,0,1-1.27-.26,4.49,4.49,0,0,1-1-.6,4.21,4.21,0,0,1-.67-.67,1,1,0,0,1-.23-.49,9.9,9.9,0,0,1,.2-1.53c.14-.71.3-1.55.49-2.51s.42-2,.67-3.15.49-2.28.72-3.44c-.5,1.27-1.07,2.65-1.7,4.13a44.81,44.81,0,0,1-2,4.1,20.72,20.72,0,0,1-2.08,3.15,2.77,2.77,0,0,1-2,1.27,2.61,2.61,0,0,1-1.12-.25,3.63,3.63,0,0,1-1-.63,4.2,4.2,0,0,1-.72-.82,1.43,1.43,0,0,1-.29-.73,18.8,18.8,0,0,1,.46-3.14c.31-1.49.66-3.08,1-4.8s.74-3.39,1.07-5a21,21,0,0,0,.49-4c.2.08.5.22.93.43s.85.44,1.3.69.83.49,1.15.7.49.37.49.49a9.55,9.55,0,0,1-.23,1.65c-.15.79-.35,1.69-.6,2.71s-.51,2.11-.78,3.27-.53,2.23-.78,3.23-.46,1.89-.61,2.66a10.7,10.7,0,0,0-.23,1.5c0,.54.17.81.52.81s.71-.39,1.21-1.16a29.68,29.68,0,0,0,1.68-3.06c.61-1.27,1.28-2.75,2-4.45l2.22-5.31c.16-.77.27-1.44.35-2s.16-1.13.23-1.71c.16.08.45.2.9.38l1.33.52a12.18,12.18,0,0,1,1.18.52c.35.17.52.31.52.43a11.35,11.35,0,0,1-.23,1.44c-.15.77-.36,1.7-.61,2.78s-.51,2.21-.78,3.41-.53,2.32-.78,3.37-.45,2-.6,2.69a9.19,9.19,0,0,0-.23,1.33q0,.81.57.81c.47,0,1.15-.56,2.05-1.68A24.47,24.47,0,0,0,279,145a40.67,40.67,0,0,0,2.4-6.18,26.72,26.72,0,0,0,1.15-6.92l.84.43c.4.21.81.45,1.21.7a9.69,9.69,0,0,1,1.1.78C286.06,134.1,286.22,134.31,286.22,134.46Z"/><path class="cls-6" d="M291.25,147c.27-.58.64-1.29,1.12-2.14s1-1.73,1.62-2.66,1.22-1.84,1.88-2.74a29.39,29.39,0,0,1,2-2.46,14.53,14.53,0,0,1,1.88-1.79,2.8,2.8,0,0,1,1.65-.69,1.94,1.94,0,0,1,1,.32,4.64,4.64,0,0,1,1,.78,4,4,0,0,1,.69,1,2,2,0,0,1,.26.92,7.44,7.44,0,0,1-.31,1.76c-.22.79-.49,1.66-.81,2.6s-.68,1.91-1,2.89-.69,1.88-1,2.69-.47,1.47-.6,2-.13.78,0,.78.47-.31.95-.92,1.06-1.44,1.73-2.46,1.42-2.19,2.23-3.52,1.63-2.73,2.48-4.19v1q-3.58,6.36-5.57,9.21t-3.21,3a2,2,0,0,1-1.82-.78,3.83,3.83,0,0,1-.95-1.82,5.61,5.61,0,0,1,.23-2.11,26.53,26.53,0,0,1,.95-2.92c.4-1,.83-2.1,1.27-3.2s.84-2.09,1.19-3a19.25,19.25,0,0,0,.72-2.16q.19-.84-.09-.84c-.31,0-.89.44-1.73,1.33a34.18,34.18,0,0,0-2.92,3.61,54.51,54.51,0,0,0-3.35,5.34,49.48,49.48,0,0,0-3,6.53,5,5,0,0,1-.81-.46,10.44,10.44,0,0,1-1-.78,9.89,9.89,0,0,1-.93-.87,1.25,1.25,0,0,1-.4-.72,7.8,7.8,0,0,1,.29-1.16c.19-.65.44-1.45.75-2.39s.63-2,1-3.12.68-2.24,1-3.3.56-2,.75-2.91a9.87,9.87,0,0,0,.29-2v-.49c0-.13,0-.33-.05-.6a6,6,0,0,1,1.21.43,11.38,11.38,0,0,1,1.33.72,9.64,9.64,0,0,1,1.07.78c.29.25.43.46.43.61a6,6,0,0,1-.23,1.62c-.16.53-.37,1.21-.64,2s-.61,1.79-1,2.94S291.75,145.26,291.25,147Z"/></g><g id="artwork"><path class="cls-7" d="M42.89,422.88H360a0,0,0,0,1,0,0V450.3a0,0,0,0,1,0,0H42.89a13.71,13.71,0,0,1-13.71-13.71v0a13.71,13.71,0,0,1,13.71-13.71Z"/><path class="cls-5" d="M103.17,450.3H360a0,0,0,0,1,0,0v27.42a0,0,0,0,1,0,0H103.17A13.17,13.17,0,0,1,90,464.55v-1.07a13.17,13.17,0,0,1,13.17-13.17Z"/><path class="cls-8" d="M10.68,260.76c5.91.44,11.85.51,17.78.69,2.67.08,5.34,0,8,0v.27c7-.24,14-.34,21-.77q9.1-.56,18.15-1.75c6.66-.88,13.3-2,19.91-3.2,3.45-.62,6.84-1.61,10.23-2.54a46.87,46.87,0,0,0,12.66-5.12A16.13,16.13,0,0,0,120.5,247c1.28-1.12,1.51-2.7,1.58-4.29.25-5.33-1.92-9.72-5.45-13.53a28.71,28.71,0,0,0-7.59-5.78,1.11,1.11,0,0,0-1.27,0c-7.7,4.82-16.33,7-25.13,8.56-6.09,1.12-12.2,2.22-18.33,3.06s-12,1.4-18.05,1.92a229.56,229.56,0,0,1-28,.68C12.17,237.36,6.08,237,0,236.51v23.33Q5.34,260.37,10.68,260.76Z"/><path class="cls-8" d="M.78,229.87c8.12.52,16.25.85,24.38,1.27v-.23c9,0,18.07-.42,27.06-1.27a292.24,292.24,0,0,0,36.61-5.9,51.16,51.16,0,0,0,12.21-4c8-4.14,11.16-11.9,9.84-20.1-1.22-7.57-5.48-13.22-11.39-17.78-7-5.41-15.08-8.52-23.61-10.56a1.56,1.56,0,0,0-2,.82,38.29,38.29,0,0,1-12.58,12.1,62,62,0,0,1-24.81,9.32,99.07,99.07,0,0,1-18.86.67c-3.52-.18-7-.33-10.57-.59-2.36-.18-4.7-.46-7-.82v37Z"/><path class="cls-8" d="M2.51,187a157.25,157.25,0,0,0,25.58.85,60.63,60.63,0,0,0,18.66-3.52,59,59,0,0,0,11.36-5.59,36.28,36.28,0,0,0,9.16-8,23.3,23.3,0,0,0,5-14.11c.4-14.46-5.38-26-16.78-34.82a38,38,0,0,0-16.81-7.57A27.31,27.31,0,0,0,15.72,120c-.2.17-.39.36-.7.66A19.59,19.59,0,0,1,28.55,127c7.55,8.2,6,21.88-3.11,28.28a22.43,22.43,0,0,1-11.58,4.32,28.55,28.55,0,0,1-4.23-.16c-.89-.08-1.15-.72-.59-1.43a4.11,4.11,0,0,1,1.31-1.11c1.15-.59,2.34-1.09,3.53-1.58A30.15,30.15,0,0,0,23.7,149a12.8,12.8,0,0,0,3.69-6.7c-2.17,0-4.29-.11-6.39,0A99.7,99.7,0,0,0,0,145.9v40.75C.83,186.78,1.67,186.89,2.51,187Z"/><path class="cls-5" d="M3,366.8c-.48-4.43-1-8.85-1.4-13.28Q.77,345.45,0,337.38v34.08c1.15.13,2.31.19,3.58.29C3.37,370,3.16,368.4,3,366.8Z"/><path class="cls-5" d="M.69,295.79c.72,5.14,1.36,10.29,2,15.45.36,3.25.54,6.53.85,9.8.38,4.1.81,8.19,1.19,12.28.36,3.83.67,7.65,1,11.47.44,4.68.92,9.35,1.38,14,.41,4.21.84,8.43,1.21,12.65.06.62.39.68.84.71,1.17.08,2.33.16,3.5.2,4.27.14,8.54.24,12.81.4.86,0,.86-.42.86-1,0-4.89,0-9.78,0-14.67q.12-12.85.32-25.72c0-3,.1-6.06.2-9.09s.25-5.83.34-8.75.06-6.13.2-9.2.41-6.07.64-9.1a22.51,22.51,0,0,1,.34-3.29,2.18,2.18,0,0,1,1-1.36,1.13,1.13,0,0,1,1.54.78,6,6,0,0,1,.34,1.71q.21,9.63.37,19.25c0,1.57.08,3.13.08,4.7q0,21.75-.06,43.51c0,3.74-.16,7.49-.3,11.24,0,.81.19,1.06,1,1,5.81-.15,11.62-.26,17.43-.36.62,0,.84-.23.92-.83.56-4.64,1.16-9.26,1.74-13.89q.9-7.37,1.78-14.73c.46-3.9.89-7.81,1.36-11.71.58-4.87,1.21-9.74,1.76-14.62.5-4.32.84-8.66,1.41-13s1.33-8.61,2.06-12.91c.13-.74.25-1.72,1.37-1.64s1.15,1,1.15,1.8c0,3,.14,6,0,8.94-.3,5-.75,10.05-1.2,15.06s-1,10.28-1.53,15.4c-.6,5.56-1.27,11.11-2,16.65-.88,7.19-1.81,14.38-2.72,21.57-.14,1.12-.26,2.24-.42,3.57,1.64-.11,3.14-.14,4.63-.31,4-.44,7.92-1,11.89-1.39.94-.1,1.26-.44,1.44-1.42.72-3.73,1.63-7.43,2.41-11.15,2.54-12.2,5.11-24.4,7.56-36.62,1.58-7.88,3-15.81,4.44-23.72A75.46,75.46,0,0,1,91,285.6a4.91,4.91,0,0,1,.55-1.26c.23-.32.63-.74.94-.72s.59.53.76.89a3.63,3.63,0,0,1,.25,1.16,37.86,37.86,0,0,1-.33,10.2c-1.72,10.39-3.4,20.78-5.42,31.11-2.18,11.12-4.71,22.16-7.1,33.23-.63,2.94-1.3,5.86-2,9,1.74-.4,3.41-.74,5.06-1.16,1.33-.35,2.65-.77,4-1.21,4.48-1.51,7.07-4.89,8.63-9.11,1.36-3.65,2.46-7.4,3.62-11.12,2.82-9.09,5.73-18.16,8.39-27.29,3.67-12.62,7.14-25.29,10.7-37.94q1.17-4.12,2.32-8.25c.05-.2.08-.41.14-.72-1.23.63-2.35,1.24-3.5,1.8a83.87,83.87,0,0,1-17.47,5.72,173.67,173.67,0,0,1-22.88,3.83c-5.93.58-11.88,1-17.82,1.36-9.61.62-19.23.7-28.85.5-7-.14-14.06-.48-21.09-.85-3.31-.18-6.61-.41-9.91-.66v8.44A31.36,31.36,0,0,1,.69,295.79Z"/><path class="cls-7" d="M124.42,266l-.74.17c.3-2,.64-4,.85-6a18.06,18.06,0,0,0-.47-7.31.82.82,0,0,1,.19-.69c3.85-3.28,4.72-7.64,4-12.3a26,26,0,0,0-13.82-20c-.35-.19-.71-.35-1.08-.51s-.71-.31-.92-.4a61.53,61.53,0,0,0,3.15-6c2.85-7.09,2.2-14.14-.65-21.08a34.37,34.37,0,0,0-11.5-14.48,62.61,62.61,0,0,0-22.16-10.93c-.72-.19-1.44-.33-2.17-.46s-1.45-.2-2.29-.32c.27-1.11.56-2.17.78-3.24A40.83,40.83,0,0,0,75.79,140c-5.4-14.83-15.61-24.91-30.49-30.17a34.51,34.51,0,0,0-19.51-1.33c-6.57,1.51-12,4.72-15.64,10.62a12.4,12.4,0,0,0-1.08,2.23c-.72,2,0,3,2.15,3.18a30.86,30.86,0,0,1,4.3.43c5.76,1.28,10,4.33,11.79,10.25.09.32.14.65.25,1.15H26.05a115.54,115.54,0,0,0-26,3.31v6.21a99.7,99.7,0,0,1,21-3.54c2.1-.13,4.22,0,6.39,0A12.8,12.8,0,0,1,23.7,149a30.15,30.15,0,0,1-9.82,6.23c-1.19.49-2.38,1-3.53,1.58A4.11,4.11,0,0,0,9,158c-.56.71-.3,1.35.59,1.43a28.55,28.55,0,0,0,4.23.16,22.43,22.43,0,0,0,11.58-4.32c9.13-6.4,10.66-20.08,3.11-28.28A19.59,19.59,0,0,0,15,120.64c.31-.3.5-.49.7-.66a27.31,27.31,0,0,1,22.91-5.79,38,38,0,0,1,16.81,7.57c11.4,8.79,17.18,20.36,16.78,34.82a23.3,23.3,0,0,1-5,14.11,36.28,36.28,0,0,1-9.16,8,59,59,0,0,1-11.36,5.59,60.63,60.63,0,0,1-18.66,3.52A157.25,157.25,0,0,1,2.51,187c-.84-.1-1.68-.21-2.51-.34v6.12c2.32.36,4.66.64,7,.82,3.52.26,7.05.41,10.57.59a99.07,99.07,0,0,0,18.86-.67,62,62,0,0,0,24.81-9.32,38.29,38.29,0,0,0,12.58-12.1,1.56,1.56,0,0,1,2-.82c8.53,2,16.59,5.15,23.61,10.56,5.91,4.56,10.17,10.21,11.39,17.78,1.32,8.2-1.8,16-9.84,20.1a51.16,51.16,0,0,1-12.21,4,292.24,292.24,0,0,1-36.61,5.9c-9,.85-18,1.25-27.06,1.27v.23C17,230.72,8.9,230.39.78,229.87L0,229.81v6.7c6.08.46,12.17.85,18.26,1.07a229.56,229.56,0,0,0,28-.68c6-.52,12.05-1.09,18.05-1.92s12.24-1.94,18.33-3.06c8.79-1.6,17.43-3.74,25.13-8.56a1.11,1.11,0,0,1,1.27,0,28.71,28.71,0,0,1,7.59,5.78c3.53,3.81,5.7,8.2,5.45,13.53-.07,1.59-.3,3.17-1.58,4.29a16.13,16.13,0,0,1-2.07,1.37,46.87,46.87,0,0,1-12.66,5.12c-3.39.93-6.78,1.92-10.23,2.54-6.61,1.21-13.25,2.32-19.91,3.2q-9,1.19-18.15,1.75c-7,.43-14,.53-21,.77v-.27c-2.68,0-5.35.07-8,0-5.93-.18-11.87-.25-17.78-.69q-5.34-.39-10.68-.92v24.23c3.3.25,6.6.48,9.91.66,7,.37,14.06.71,21.09.85,9.62.2,19.24.12,28.85-.5,5.94-.39,11.89-.78,17.82-1.36a173.67,173.67,0,0,0,22.88-3.83A83.87,83.87,0,0,0,118,274.17c1.15-.56,2.27-1.17,3.5-1.8-.06.31-.09.52-.14.72q-1.16,4.13-2.32,8.25c-3.56,12.65-7,25.32-10.7,37.94-2.66,9.13-5.57,18.2-8.39,27.29-1.16,3.72-2.26,7.47-3.62,11.12-1.56,4.22-4.15,7.6-8.63,9.11-1.31.44-2.63.86-4,1.21-1.65.42-3.32.76-5.06,1.16.69-3.1,1.36-6,2-9,2.39-11.07,4.92-22.11,7.1-33.23,2-10.33,3.7-20.72,5.42-31.11a37.86,37.86,0,0,0,.33-10.2,3.63,3.63,0,0,0-.25-1.16c-.17-.36-.48-.87-.76-.89s-.71.4-.94.72A4.91,4.91,0,0,0,91,285.6a75.46,75.46,0,0,0-3.16,11.91c-1.46,7.91-2.86,15.84-4.44,23.72-2.45,12.22-5,24.42-7.56,36.62-.78,3.72-1.69,7.42-2.41,11.15-.18,1-.5,1.32-1.44,1.42-4,.43-7.93.95-11.89,1.39-1.49.17-3,.2-4.63.31.16-1.33.28-2.45.42-3.57.91-7.19,1.84-14.38,2.72-21.57.69-5.54,1.36-11.09,2-16.65q.84-7.68,1.53-15.4c.45-5,.9-10,1.2-15.06.17-3,.06-6,0-8.94,0-.79-.07-1.71-1.15-1.8s-1.24.9-1.37,1.64c-.73,4.3-1.49,8.59-2.06,12.91s-.91,8.66-1.41,13c-.55,4.88-1.18,9.75-1.76,14.62-.47,3.9-.9,7.81-1.36,11.71q-.88,7.36-1.78,14.73c-.58,4.63-1.18,9.25-1.74,13.89-.08.6-.3.82-.92.83-5.81.1-11.62.21-17.43.36-.82,0-1-.22-1-1,.14-3.75.28-7.5.3-11.24q.06-21.76.06-43.51c0-1.57,0-3.13-.08-4.7q-.16-9.63-.37-19.25a6,6,0,0,0-.34-1.71,1.13,1.13,0,0,0-1.54-.78,2.18,2.18,0,0,0-1,1.36,22.51,22.51,0,0,0-.34,3.29c-.23,3-.5,6.06-.64,9.1s-.11,6.14-.2,9.2-.25,5.83-.34,8.75-.15,6.06-.2,9.09q-.18,12.86-.32,25.72c-.05,4.89,0,9.78,0,14.67,0,.6,0,1.05-.86,1-4.27-.16-8.54-.26-12.81-.4-1.17,0-2.33-.12-3.5-.2-.45,0-.78-.09-.84-.71-.37-4.22-.8-8.44-1.21-12.65-.46-4.68-.94-9.35-1.38-14-.37-3.82-.68-7.64-1-11.47-.38-4.09-.81-8.18-1.19-12.28-.31-3.27-.49-6.55-.85-9.8-.59-5.16-1.23-10.31-1.95-15.45A31.36,31.36,0,0,0,0,292.51v44.87q.77,8.07,1.58,16.14C2,358,2.51,362.37,3,366.8c.17,1.6.38,3.2.59,4.95-1.27-.1-2.43-.16-3.58-.29V377c3.91.38,7.82.68,11.74.84,9.61.39,19.23.49,28.85.51a211.36,211.36,0,0,0,25-1.41c6.84-.79,13.59-2.07,20.32-3.52,8.3-1.8,13.44-7.05,16-14.84,3.92-11.89,7.72-23.83,11.26-35.84,3.14-10.65,5.93-21.41,8.73-32.16,1.75-6.71,3.26-13.48,4.83-20.24a8.44,8.44,0,0,0,.14-2.56C126.78,266.08,126,265.6,124.42,266Z"/><polygon class="cls-7" points="330.94 103.68 300 82.28 269.06 103.68 269.06 0 330.94 0 330.94 103.68"/></g><g id="text"><text class="cls-9" transform="translate(39.58 440.08)">3710 WESTMINSTER AVE. STE. E, SANTA ANA, CA, 92703</text><text class="cls-10" transform="translate(143.06 210.86)">COME JOIN US ON <tspan class="cls-11" x="104.26" y="0">AUGUST 10th</tspan><tspan x="173.17" y="0" xml:space="preserve"> IN </tspan><tspan x="0" y="13.2">CELEBRATING THE OPENING OF </tspan><tspan class="cls-11"><tspan x="0" y="26.4">BANI BAKERY</tspan><tspan class="cls-7" x="70.89" y="26.4" xml:space="preserve"> IN SANTA ANA.</tspan></tspan></text><path class="cls-1" d="M279.68,12.65h1.71l3.42,8.89h-1.76l-.69-1.83h-3.63L278,21.54h-1.76Zm.87,2.35-1.2,3.06h2.38Z"/><path class="cls-1" d="M286.24,12.65h1.7V18.4a2.93,2.93,0,0,0,.13,1.05,1.07,1.07,0,0,0,.43.49,1.37,1.37,0,0,0,.72.18,1.45,1.45,0,0,0,.77-.2,1,1,0,0,0,.45-.53,4,4,0,0,0,.12-1.21V12.65h1.7V18a7.77,7.77,0,0,1-.15,1.86,2.58,2.58,0,0,1-.58,1,2.74,2.74,0,0,1-1,.72,3.41,3.41,0,0,1-1.29.23,3.06,3.06,0,0,1-1.68-.45,2.55,2.55,0,0,1-1-1.11,5.91,5.91,0,0,1-.31-2.25Z"/><path class="cls-1" d="M302.62,14.1l-1.2,1.18a3.5,3.5,0,0,0-2.63-1.2,3,3,0,0,0-2.2.87,2.86,2.86,0,0,0-.89,2.11,3,3,0,0,0,.92,2.19,3.16,3.16,0,0,0,2.27.89,2.73,2.73,0,0,0,1.48-.37,2.54,2.54,0,0,0,1-1.15h-2.57V17h4.47v.37a4.48,4.48,0,0,1-2.17,3.81,4.41,4.41,0,0,1-2.25.55,5,5,0,0,1-2.47-.6,4.42,4.42,0,0,1-1.72-1.71,4.84,4.84,0,0,1-.63-2.4A4.44,4.44,0,0,1,295.18,14a4.57,4.57,0,0,1,3.6-1.55,5.59,5.59,0,0,1,2.17.42A5.13,5.13,0,0,1,302.62,14.1Z"/><path class="cls-1" d="M304.93,12.65h1.69V18.4a2.88,2.88,0,0,0,.14,1.05,1,1,0,0,0,.42.49,1.39,1.39,0,0,0,.73.18,1.5,1.5,0,0,0,.77-.2,1.07,1.07,0,0,0,.44-.53,3.59,3.59,0,0,0,.13-1.21V12.65H311V18a7.63,7.63,0,0,1-.16,1.86,2.68,2.68,0,0,1-.57,1,2.77,2.77,0,0,1-1,.72,3.41,3.41,0,0,1-1.29.23,3.1,3.1,0,0,1-1.68-.45,2.47,2.47,0,0,1-1-1.11,5.72,5.72,0,0,1-.31-2.25Z"/><path class="cls-1" d="M317.76,13.86,316.5,15a1.76,1.76,0,0,0-1.34-.92.8.8,0,0,0-.54.18.52.52,0,0,0-.21.4.66.66,0,0,0,.15.43,11.12,11.12,0,0,0,1.24,1.14q1,.81,1.17,1a3.67,3.67,0,0,1,.73,1,2.58,2.58,0,0,1,.21,1,2.4,2.4,0,0,1-.75,1.81,2.78,2.78,0,0,1-2,.71,2.94,2.94,0,0,1-1.66-.47,3.58,3.58,0,0,1-1.2-1.46l1.42-.86c.43.79.92,1.18,1.47,1.18a1.11,1.11,0,0,0,.74-.25.75.75,0,0,0,.29-.59,1,1,0,0,0-.22-.6,6.79,6.79,0,0,0-1-.93A9.75,9.75,0,0,1,313.17,16a2.29,2.29,0,0,1-.43-1.29,2.1,2.1,0,0,1,.71-1.58,2.45,2.45,0,0,1,1.74-.66,2.78,2.78,0,0,1,1.26.3A4.55,4.55,0,0,1,317.76,13.86Z"/><path class="cls-1" d="M318.84,12.65h4.91v1.67h-1.62v7.22h-1.71V14.32h-1.58Z"/><path class="cls-1" d="M288.32,30.69h5.53V50.13h-3.67v-16h-4Z"/><path class="cls-1" d="M306.94,30.2a6.36,6.36,0,0,1,3.67,1.05A6.58,6.58,0,0,1,313,34.44a16.93,16.93,0,0,1,.84,6,16.91,16.91,0,0,1-.86,6,6.76,6.76,0,0,1-2.29,3.16,6.2,6.2,0,0,1-3.63,1,6.41,6.41,0,0,1-3.69-1A6.73,6.73,0,0,1,301,46.51a16.32,16.32,0,0,1-.84-5.91c0-3.56.55-6.15,1.65-7.75A5.89,5.89,0,0,1,306.94,30.2Zm.09,3.52a2.51,2.51,0,0,0-1.66.6,3.82,3.82,0,0,0-1.11,2.07,17.91,17.91,0,0,0-.38,4.29q0,3.69.87,5.1A2.65,2.65,0,0,0,307,47.19a2.39,2.39,0,0,0,2.13-1.34,11.09,11.09,0,0,0,1-5.39q0-3.84-.87-5.29A2.54,2.54,0,0,0,307,33.72Z"/><path class="cls-1" d="M288.07,62.15h-1.65a3.22,3.22,0,0,1,.9-2.26,2.93,2.93,0,0,1,2.15-.83,2.85,2.85,0,0,1,1.42.35,2.48,2.48,0,0,1,1,1,2.68,2.68,0,0,1,.37,1.31,3.86,3.86,0,0,1-.45,1.7,9.22,9.22,0,0,1-1.65,2.16l-1,1h3.17v1.57h-6.16v-.81l2.75-2.81a7.8,7.8,0,0,0,1.33-1.62,2.39,2.39,0,0,0,.33-1.11,1.19,1.19,0,0,0-.34-.85,1.22,1.22,0,0,0-.88-.33,1.16,1.16,0,0,0-.91.4A1.66,1.66,0,0,0,288.07,62.15Z"/><path class="cls-1" d="M296.46,59.06a2.91,2.91,0,0,1,1.68.48A3,3,0,0,1,299.22,61a9.86,9.86,0,0,1,0,5.49,3.09,3.09,0,0,1-1.05,1.45,2.88,2.88,0,0,1-1.66.46,3,3,0,0,1-1.69-.47,3.08,3.08,0,0,1-1.07-1.41,7.59,7.59,0,0,1-.38-2.7,6.49,6.49,0,0,1,.75-3.55A2.71,2.71,0,0,1,296.46,59.06Zm0,1.61a1.12,1.12,0,0,0-.76.28,1.81,1.81,0,0,0-.51.94,8.76,8.76,0,0,0-.17,2,4.75,4.75,0,0,0,.4,2.33,1.21,1.21,0,0,0,1,.64,1.11,1.11,0,0,0,1-.61,5.11,5.11,0,0,0,.44-2.47,5.17,5.17,0,0,0-.4-2.41A1.15,1.15,0,0,0,296.5,60.67Z"/><path class="cls-1" d="M302.17,59.29h2.54v8.89H303v-7.3H301.2Z"/><path class="cls-1" d="M308,59.29h5.83v.89l-4,8.22-1.42-.69,3.33-6.83H308Z"/><text class="cls-10" transform="translate(143.06 260.52)">BRING IN THIS FLYER FOR A <tspan class="cls-11" x="146.16" y="0">FREE</tspan><tspan x="169.92" y="0" xml:space="preserve"> MINI</tspan><tspan x="0" y="13.2">DESSERT WITH A PURCHASE. (WHILE</tspan><tspan x="0" y="26.4">SUPPLIES LAST!)</tspan></text><text class="cls-12" transform="translate(143.06 310.52)">SPECIAL ACTIVITIES:<tspan class="cls-7"><tspan x="0" y="13.2" xml:space="preserve">   20 GOODIE BAGS FOR THE FIRST 2O </tspan><tspan x="0" y="26.4" xml:space="preserve">   CUSTOMERS</tspan><tspan x="0" y="52.8" xml:space="preserve">   SAMPLES OF BAKED GOODS AND</tspan><tspan x="0" y="66" xml:space="preserve">   BEVERAGES WILL BE AVAILABLE</tspan><tspan x="0" y="79.2" xml:space="preserve">   (FROM 10AM - 1PM)</tspan></tspan></text><text class="cls-13" transform="translate(104.98 467.33)">(657) 231 - 6211</text><text class="cls-13" transform="translate(208.25 467.33)">WWW.BANIBAKERY.COM</text><circle class="cls-11" cx="146.36" cy="320.8" r="2.7"/><circle class="cls-11" cx="146.36" cy="360.42" r="2.7"/></g></svg>